<?xml version="1.0" standalone="no"?>
<!DOCTYPE svg PUBLIC "-//W3C//DTD SVG 20010904//EN"
 "http://www.w3.org/TR/2001/REC-SVG-20010904/DTD/svg10.dtd">
<svg version="1.0" xmlns="http://www.w3.org/2000/svg"
 width="16.000000pt" height="16.000000pt" viewBox="0 0 16.000000 16.000000"
 preserveAspectRatio="xMidYMid meet">
<metadata>
Created by potrace 1.11, written by Peter Selinger 2001-2013
</metadata>
<g transform="translate(0.000000,16.000000) scale(0.006154,-0.006154)"
fill="#000000" stroke="none">
<path d="M783 2101 c-70 -44 -67 -26 -73 -531 l-5 -455 -25 -44 c-34 -61 -68
-83 -134 -89 -78 -6 -114 3 -189 48 -79 48 -113 56 -160 41 -88 -29 -128 -121
-88 -203 46 -95 237 -178 411 -178 245 0 413 117 478 333 13 43 16 130 19 498
3 294 1 460 -6 486 -6 21 -26 54 -46 73 -30 29 -43 34 -92 37 -45 3 -65 0 -90
-16z"/>
<path d="M1399 2097 c-71 -47 -69 -24 -69 -687 0 -547 1 -598 18 -629 38 -75
135 -103 209 -61 70 39 78 62 81 252 l4 166 80 74 c45 40 84 74 88 76 4 1 40
-41 81 -95 328 -433 349 -459 386 -478 36 -19 106 -19 143 0 62 32 93 111 70
181 -7 20 -112 161 -237 317 l-225 282 139 130 c279 263 300 286 308 333 8 53
-21 119 -64 145 -39 23 -117 22 -157 -2 -17 -11 -161 -147 -320 -304 l-289
-285 -5 251 c-5 237 -6 254 -27 287 -30 48 -71 70 -131 70 -34 0 -59 -7 -83
-23z"/>
</g>
</svg>
